<?xml version="1.0" encoding="utf-8" standalone="yes"?> <svg width="1000" height="1000" viewBox="-1 -1 31 31" xmlns="http://www.w3.org/2000/svg" xmlns:xlink="http://www.w3.org/1999/xlink" shape-rendering="crispEdges" id="qr code"><rect id="qr background" fill-opacity="1" fill="rgb(255, 255, 255)" x="-1" y="-1" width="31" height="31"></rect><path fill-opacity="1" fill="rgb(0, 0, 0)" id="qr dark pixels" fill-rule="evenodd" d="M 10 0 L 11 0 L 11 1 L 10 1 z M 13 0 L 16 0 L 16 1 L 17 1 L 17 3 L 16 3 L 16 6 L 15 6 L 15 8 L 16 8 L 16 6 L 17 6 L 17 7 L 18 7 L 18 8 L 19 8 L 19 9 L 13 9 L 13 10 L 14 10 L 14 11 L 16 11 L 16 12 L 15 12 L 15 13 L 14 13 L 14 12 L 12 12 L 12 11 L 11 11 L 11 12 L 12 12 L 12 14 L 10 14 L 10 12 L 9 12 L 9 13 L 6 13 L 6 12 L 7 12 L 7 11 L 8 11 L 8 10 L 9 10 L 9 11 L 10 11 L 10 10 L 11 10 L 11 9 L 12 9 L 12 8 L 13 8 L 13 7 L 14 7 L 14 6 L 13 6 L 13 7 L 12 7 L 12 6 L 11 6 L 11 7 L 10 7 L 10 5 L 12 5 L 12 3 L 13 3 L 13 4 L 14 4 L 14 3 L 15 3 L 15 2 L 14 2 L 14 1 L 13 1 z M 19 0 L 20 0 L 20 1 L 21 1 L 21 3 L 20 3 L 20 2 L 19 2 z M 9 1 L 10 1 L 10 2 L 9 2 z M 8 2 L 9 2 L 9 3 L 8 3 z M 11 2 L 12 2 L 12 3 L 11 3 z M 9 3 L 10 3 L 10 5 L 9 5 z M 18 3 L 20 3 L 20 6 L 19 6 L 19 7 L 18 7 L 18 6 L 17 6 L 17 5 L 19 5 L 19 4 L 18 4 z M 8 6 L 9 6 L 9 9 L 8 9 L 8 10 L 7 10 L 7 9 L 6 9 L 6 10 L 5 10 L 5 11 L 4 11 L 4 8 L 8 8 z M 20 6 L 21 6 L 21 8 L 23 8 L 23 10 L 22 10 L 22 12 L 23 12 L 23 14 L 22 14 L 22 15 L 21 15 L 21 14 L 20 14 L 20 13 L 19 13 L 19 12 L 21 12 L 21 10 L 20 10 z M 11 7 L 12 7 L 12 8 L 11 8 z M 0 8 L 3 8 L 3 10 L 2 10 L 2 9 L 0 9 z M 26 8 L 27 8 L 27 9 L 26 9 z M 9 9 L 10 9 L 10 10 L 9 10 z M 25 9 L 26 9 L 26 10 L 25 10 z M 28 9 L 29 9 L 29 11 L 28 11 L 28 12 L 29 12 L 29 15 L 28 15 L 28 16 L 29 16 L 29 19 L 28 19 L 28 20 L 27 20 L 27 18 L 28 18 L 28 17 L 27 17 L 27 14 L 28 14 L 28 13 L 27 13 L 27 11 L 26 11 L 26 10 L 28 10 z M 6 10 L 7 10 L 7 11 L 6 11 z M 16 10 L 18 10 L 18 13 L 17 13 L 17 11 L 16 11 z M 23 10 L 25 10 L 25 12 L 23 12 z M 0 11 L 1 11 L 1 13 L 0 13 z M 3 11 L 4 11 L 4 12 L 5 12 L 5 14 L 4 14 L 4 13 L 3 13 z M 25 12 L 26 12 L 26 17 L 27 17 L 27 18 L 25 18 L 25 16 L 24 16 L 24 15 L 23 15 L 23 14 L 25 14 z M 1 13 L 3 13 L 3 16 L 2 16 L 2 14 L 1 14 z M 16 13 L 17 13 L 17 15 L 16 15 z M 6 14 L 8 14 L 8 15 L 9 15 L 9 17 L 10 17 L 10 18 L 11 18 L 11 17 L 12 17 L 12 16 L 13 16 L 13 17 L 14 17 L 14 18 L 13 18 L 13 19 L 14 19 L 14 18 L 15 18 L 15 19 L 16 19 L 16 20 L 15 20 L 15 22 L 14 22 L 14 20 L 12 20 L 12 19 L 11 19 L 11 20 L 12 20 L 12 22 L 11 22 L 11 23 L 10 23 L 10 25 L 12 25 L 12 24 L 13 24 L 13 25 L 14 25 L 14 26 L 13 26 L 13 27 L 14 27 L 14 26 L 15 26 L 15 28 L 17 28 L 17 26 L 18 26 L 18 27 L 19 27 L 19 28 L 18 28 L 18 29 L 14 29 L 14 28 L 12 28 L 12 27 L 10 27 L 10 28 L 9 28 L 9 29 L 8 29 L 8 26 L 9 26 L 9 25 L 8 25 L 8 21 L 9 21 L 9 20 L 10 20 L 10 19 L 9 19 L 9 18 L 8 18 L 8 17 L 6 17 L 6 18 L 5 18 L 5 16 L 7 16 L 7 15 L 6 15 z M 13 14 L 14 14 L 14 15 L 13 15 z M 18 14 L 19 14 L 19 15 L 18 15 z M 0 15 L 1 15 L 1 16 L 2 16 L 2 17 L 0 17 z M 11 15 L 12 15 L 12 16 L 11 16 z M 15 15 L 16 15 L 16 16 L 15 16 z M 17 15 L 18 15 L 18 18 L 16 18 L 16 17 L 17 17 z M 19 15 L 20 15 L 20 16 L 19 16 z M 22 15 L 23 15 L 23 18 L 22 18 L 22 19 L 21 19 L 21 18 L 20 18 L 20 16 L 21 16 L 21 17 L 22 17 z M 0 18 L 1 18 L 1 19 L 0 19 z M 2 18 L 4 18 L 4 19 L 2 19 z M 6 18 L 7 18 L 7 19 L 6 19 z M 23 18 L 25 18 L 25 19 L 24 19 L 24 20 L 23 20 z M 1 19 L 2 19 L 2 20 L 1 20 z M 4 19 L 5 19 L 5 20 L 4 20 z M 8 19 L 9 19 L 9 20 L 8 20 z M 17 19 L 21 19 L 21 20 L 18 20 L 18 21 L 20 21 L 20 23 L 18 23 L 18 25 L 17 25 L 17 24 L 15 24 L 15 23 L 17 23 L 17 22 L 16 22 L 16 20 L 17 20 z M 25 19 L 26 19 L 26 20 L 25 20 z M 0 20 L 1 20 L 1 21 L 0 21 z M 2 20 L 3 20 L 3 21 L 2 21 z M 5 20 L 7 20 L 7 21 L 5 21 z M 26 21 L 29 21 L 29 27 L 28 27 L 28 26 L 26 26 L 26 25 L 27 25 L 27 24 L 28 24 L 28 23 L 27 23 L 27 22 L 26 22 z M 13 22 L 14 22 L 14 23 L 13 23 z M 25 22 L 26 22 L 26 24 L 25 24 z M 11 23 L 12 23 L 12 24 L 11 24 z M 16 25 L 17 25 L 17 26 L 16 26 z M 19 25 L 21 25 L 21 27 L 22 27 L 22 28 L 21 28 L 21 29 L 19 29 L 19 28 L 20 28 L 20 26 L 19 26 z M 23 25 L 25 25 L 25 26 L 26 26 L 26 27 L 25 27 L 25 29 L 24 29 L 24 27 L 23 27 z M 27 27 L 28 27 L 28 28 L 29 28 L 29 29 L 27 29 z M 10 28 L 12 28 L 12 29 L 10 29 z"></path><path id="qr squares" d="M0,0h7h0v0v7v0h0h-7h0v0v-7v0h0zM1,1h5h0v0v5v0h0h-5h0v0v-5v0h0zM2,2h3h0v0v3v0h0h-3h0v0v-3v0h0z M22,0h7h0v0v7v0h0h-7h0v0v-7v0h0zM23,1h5h0v0v5v0h0h-5h0v0v-5v0h0zM24,2h3h0v0v3v0h0h-3h0v0v-3v0h0z M0,22h7h0v0v7v0h0h-7h0v0v-7v0h0zM1,23h5h0v0v5v0h0h-5h0v0v-5v0h0zM2,24h3h0v0v3v0h0h-3h0v0v-3v0h0zM20,20h5h0v0v5v0h0h-5h0v0v-5v0h0zM21,21h3h0v0v3v0h0h-3h0v0v-3v0h0zM22,22h1h0v0v1v0h0h-1h0v0v-1v0h0z" fill-rule="evenodd" fill-opacity="1" fill="rgb(0, 0, 0)"></path></svg>